<svg id="visual" viewBox="0 0 960 540" width="960" height="540" xmlns="http://www.w3.org/2000/svg" xmlns:xlink="http://www.w3.org/1999/xlink" version="1.1"><path d="M0 77L14.5 76C29 75 58 73 87.2 69.3C116.3 65.7 145.7 60.3 174.8 61.3C204 62.3 233 69.7 262 74.2C291 78.7 320 80.3 349 82C378 83.7 407 85.3 436.2 85.3C465.3 85.3 494.7 83.7 523.8 85.5C553 87.3 582 92.7 611 90.8C640 89 669 80 698 77.3C727 74.7 756 78.3 785.2 85.5C814.3 92.7 843.7 103.3 872.8 107.8C902 112.3 931 110.7 945.5 109.8L960 109L960 0L945.5 0C931 0 902 0 872.8 0C843.7 0 814.3 0 785.2 0C756 0 727 0 698 0C669 0 640 0 611 0C582 0 553 0 523.8 0C494.7 0 465.3 0 436.2 0C407 0 378 0 349 0C320 0 291 0 262 0C233 0 204 0 174.8 0C145.7 0 116.3 0 87.2 0C58 0 29 0 14.5 0L0 0Z" fill="#6198ff"></path><path d="M0 168L14.5 180.7C29 193.3 58 218.7 87.2 220.5C116.3 222.3 145.7 200.7 174.8 209.7C204 218.7 233 258.3 262 261C291 263.7 320 229.3 349 224C378 218.7 407 242.3 436.2 251.3C465.3 260.3 494.7 254.7 523.8 266.3C553 278 582 307 611 293.5C640 280 669 224 698 207.8C727 191.7 756 215.3 785.2 220.8C814.3 226.3 843.7 213.7 872.8 214.5C902 215.3 931 229.7 945.5 236.8L960 244L960 107L945.5 107.8C931 108.7 902 110.3 872.8 105.8C843.7 101.3 814.3 90.7 785.2 83.5C756 76.3 727 72.7 698 75.3C669 78 640 87 611 88.8C582 90.7 553 85.3 523.8 83.5C494.7 81.7 465.3 83.3 436.2 83.3C407 83.3 378 81.7 349 80C320 78.3 291 76.7 262 72.2C233 67.7 204 60.3 174.8 59.3C145.7 58.3 116.3 63.7 87.2 67.3C58 71 29 73 14.5 74L0 75Z" fill="#3c80ff"></path><path d="M0 228L14.5 236C29 244 58 260 87.2 267.2C116.3 274.3 145.7 272.7 174.8 289.8C204 307 233 343 262 343.8C291 344.7 320 310.3 349 298.7C378 287 407 298 436.2 306.2C465.3 314.3 494.7 319.7 523.8 332.2C553 344.7 582 364.3 611 352.7C640 341 669 298 698 286.3C727 274.7 756 294.3 785.2 291.7C814.3 289 843.7 264 872.8 265.8C902 267.7 931 296.3 945.5 310.7L960 325L960 242L945.5 234.8C931 227.7 902 213.3 872.8 212.5C843.7 211.7 814.3 224.3 785.2 218.8C756 213.3 727 189.7 698 205.8C669 222 640 278 611 291.5C582 305 553 276 523.8 264.3C494.7 252.7 465.3 258.3 436.2 249.3C407 240.3 378 216.7 349 222C320 227.3 291 261.7 262 259C233 256.3 204 216.7 174.8 207.7C145.7 198.7 116.3 220.3 87.2 218.5C58 216.7 29 191.3 14.5 178.7L0 166Z" fill="#0066ff"></path><path d="M0 395L14.5 402.2C29 409.3 58 423.7 87.2 434.5C116.3 445.3 145.7 452.7 174.8 458.2C204 463.7 233 467.3 262 458.3C291 449.3 320 427.7 349 422.2C378 416.7 407 427.3 436.2 432.7C465.3 438 494.7 438 523.8 442.5C553 447 582 456 611 457.8C640 459.7 669 454.3 698 458C727 461.7 756 474.3 785.2 467.2C814.3 460 843.7 433 872.8 431.2C902 429.3 931 452.7 945.5 464.3L960 476L960 323L945.5 308.7C931 294.3 902 265.7 872.8 263.8C843.7 262 814.3 287 785.2 289.7C756 292.3 727 272.7 698 284.3C669 296 640 339 611 350.7C582 362.3 553 342.7 523.8 330.2C494.7 317.7 465.3 312.3 436.2 304.2C407 296 378 285 349 296.7C320 308.3 291 342.7 262 341.8C233 341 204 305 174.8 287.8C145.7 270.7 116.3 272.3 87.2 265.2C58 258 29 242 14.5 234L0 226Z" fill="#0059dd"></path><path d="M0 541L14.5 541C29 541 58 541 87.2 541C116.3 541 145.7 541 174.8 541C204 541 233 541 262 541C291 541 320 541 349 541C378 541 407 541 436.2 541C465.3 541 494.7 541 523.8 541C553 541 582 541 611 541C640 541 669 541 698 541C727 541 756 541 785.2 541C814.3 541 843.7 541 872.8 541C902 541 931 541 945.5 541L960 541L960 474L945.5 462.3C931 450.7 902 427.3 872.8 429.2C843.7 431 814.3 458 785.2 465.2C756 472.3 727 459.7 698 456C669 452.3 640 457.7 611 455.8C582 454 553 445 523.8 440.5C494.7 436 465.3 436 436.2 430.7C407 425.3 378 414.7 349 420.2C320 425.7 291 447.3 262 456.3C233 465.3 204 461.7 174.8 456.2C145.7 450.7 116.3 443.3 87.2 432.5C58 421.7 29 407.3 14.5 400.2L0 393Z" fill="#004cbb"></path></svg>