<svg id="visual" viewBox="0 0 960 540" width="960" height="540" xmlns="http://www.w3.org/2000/svg" xmlns:xlink="http://www.w3.org/1999/xlink" version="1.1"><rect x="0" y="0" width="960" height="540" fill="#FDFDFD"></rect><defs><linearGradient id="grad1_0" x1="43.8%" y1="100%" x2="100%" y2="0%"><stop offset="14.444444444444446%" stop-color="#fdfdfd" stop-opacity="1"></stop><stop offset="85.55555555555554%" stop-color="#fdfdfd" stop-opacity="1"></stop></linearGradient></defs><defs><linearGradient id="grad2_0" x1="0%" y1="100%" x2="56.3%" y2="0%"><stop offset="14.444444444444446%" stop-color="#fdfdfd" stop-opacity="1"></stop><stop offset="85.55555555555554%" stop-color="#fdfdfd" stop-opacity="1"></stop></linearGradient></defs><g transform="translate(960, 540)"><path d="M-486 0C-485.4 -69.5 -484.7 -139 -449 -186C-413.3 -233 -342.5 -257.4 -292.7 -292.7C-243 -328.1 -214.4 -374.3 -169.1 -408.4C-123.9 -442.4 -61.9 -464.2 0 -486L0 0Z" fill="#2026d2"></path></g><g transform="translate(0, 0)"><path d="M486 0C469.9 57.4 453.9 114.8 435.1 180.2C416.4 245.7 395.1 319.3 343.7 343.7C292.2 368 210.8 343 148.5 358.5C86.2 374 43.1 430 0 486L0 0Z" fill="#2026d2"></path></g></svg>