<svg id="visual" viewBox="0 0 960 540" width="960" height="540" xmlns="http://www.w3.org/2000/svg" xmlns:xlink="http://www.w3.org/1999/xlink" version="1.1"><rect x="0" y="0" width="960" height="540" fill="#FDFDFD"></rect><path d="M0 217L26.7 233.2C53.3 249.3 106.7 281.7 160 301.3C213.3 321 266.7 328 320 319.3C373.3 310.7 426.7 286.3 480 276.2C533.3 266 586.7 270 640 290.5C693.3 311 746.7 348 800 362.7C853.3 377.3 906.7 369.7 933.3 365.8L960 362L960 0L933.3 0C906.7 0 853.3 0 800 0C746.7 0 693.3 0 640 0C586.7 0 533.3 0 480 0C426.7 0 373.3 0 320 0C266.7 0 213.3 0 160 0C106.7 0 53.3 0 26.7 0L0 0Z" fill="#0066FF" stroke-linecap="round" stroke-linejoin="miter"></path></svg>