<svg id="visual" viewBox="0 0 960 540" width="960" height="540" xmlns="http://www.w3.org/2000/svg" xmlns:xlink="http://www.w3.org/1999/xlink" version="1.1"><rect x="0" y="0" width="960" height="540" fill="#FDFDFD"></rect><path d="M0 264L22.8 278.5C45.7 293 91.3 322 137 328C182.7 334 228.3 317 274 315.7C319.7 314.3 365.3 328.7 411.2 313.3C457 298 503 253 548.8 245.8C594.7 238.7 640.3 269.3 686 262C731.7 254.7 777.3 209.3 823 191C868.7 172.7 914.3 181.3 937.2 185.7L960 190L960 0L937.2 0C914.3 0 868.7 0 823 0C777.3 0 731.7 0 686 0C640.3 0 594.7 0 548.8 0C503 0 457 0 411.2 0C365.3 0 319.7 0 274 0C228.3 0 182.7 0 137 0C91.3 0 45.7 0 22.8 0L0 0Z" fill="#2026d2" stroke-linecap="round" stroke-linejoin="miter"></path></svg>