<svg id="visual" viewBox="0 0 960 540" width="960" height="540" xmlns="http://www.w3.org/2000/svg" xmlns:xlink="http://www.w3.org/1999/xlink" version="1.1"><rect x="0" y="0" width="960" height="540" fill="#f1f5fa"></rect><path d="M0 350L22.8 347.2C45.7 344.3 91.3 338.7 137 334C182.7 329.3 228.3 325.7 274 329.7C319.7 333.7 365.3 345.3 411.2 362C457 378.7 503 400.3 548.8 392.7C594.7 385 640.3 348 686 327.7C731.7 307.3 777.3 303.7 823 317.3C868.7 331 914.3 362 937.2 377.5L960 393L960 541L937.2 541C914.3 541 868.7 541 823 541C777.3 541 731.7 541 686 541C640.3 541 594.7 541 548.8 541C503 541 457 541 411.2 541C365.3 541 319.7 541 274 541C228.3 541 182.7 541 137 541C91.3 541 45.7 541 22.8 541L0 541Z" fill="#2026d2" stroke-linecap="round" stroke-linejoin="miter"></path></svg>