<svg id="visual" viewBox="0 0 960 540" width="960" height="540" xmlns="http://www.w3.org/2000/svg" xmlns:xlink="http://www.w3.org/1999/xlink" version="1.1"><rect x="0" y="0" width="960" height="540" fill="#2026d2"></rect><path d="M0 403L26.7 379.3C53.3 355.7 106.7 308.3 160 294.8C213.3 281.3 266.7 301.7 320 324.8C373.3 348 426.7 374 480 389.8C533.3 405.7 586.7 411.3 640 388.2C693.3 365 746.7 313 800 282.7C853.3 252.3 906.7 243.7 933.3 239.3L960 235L960 541L933.3 541C906.7 541 853.3 541 800 541C746.7 541 693.3 541 640 541C586.7 541 533.3 541 480 541C426.7 541 373.3 541 320 541C266.7 541 213.3 541 160 541C106.7 541 53.3 541 26.7 541L0 541Z" fill="#FFFFFF" stroke-linecap="round" stroke-linejoin="miter"></path></svg>